<?xml version="1.0" standalone="no"?>
<!DOCTYPE svg PUBLIC "-//W3C//DTD SVG 20010904//EN"
 "http://www.w3.org/TR/2001/REC-SVG-20010904/DTD/svg10.dtd">
<svg version="1.0" xmlns="http://www.w3.org/2000/svg"
 width="784.000000pt" height="1168.000000pt" viewBox="0 0 784.000000 1168.000000"
 preserveAspectRatio="xMidYMid meet">

<g transform="translate(0.000000,1168.000000) scale(0.100000,-0.100000)"
fill="#000000" stroke="none">
<path d="M5160 10676 c-200 -70 -392 -221 -515 -405 -103 -155 -169 -334 -206
-556 -11 -66 -23 -138 -27 -159 l-7 -40 -28 57 c-84 171 -126 337 -134 529
l-6 116 -56 15 c-157 43 -371 61 -560 47 -190 -15 -346 -52 -703 -170 -101
-33 -238 -72 -304 -85 -218 -45 -460 -29 -626 40 -16 6 -18 1 -18 -46 1 -149
63 -301 168 -408 37 -37 81 -77 97 -89 l30 -21 -53 -1 c-159 -1 -307 -62 -558
-230 -194 -131 -296 -184 -407 -212 -98 -25 -184 -21 -272 12 -70 27 -177 126
-215 200 l-23 45 -19 -43 c-38 -86 -52 -179 -52 -352 -1 -156 1 -169 27 -244
30 -85 93 -189 152 -249 111 -114 235 -175 429 -212 28 -6 26 -8 -45 -55 -98
-64 -164 -131 -301 -302 -149 -186 -205 -247 -286 -308 -104 -77 -163 -102
-258 -108 -73 -4 -88 -1 -138 21 -32 15 -80 50 -112 82 -30 30 -58 55 -61 55
-12 0 6 -317 22 -400 67 -343 240 -573 497 -661 78 -27 203 -29 267 -5 24 9
45 16 47 16 3 0 -10 -27 -26 -61 -60 -118 -90 -215 -130 -417 -22 -112 -50
-227 -61 -257 -67 -179 -185 -243 -396 -217 -53 7 -98 10 -101 7 -11 -10 40
-210 79 -315 61 -162 111 -242 219 -350 107 -107 185 -157 305 -197 68 -22 97
-26 195 -26 76 0 131 5 162 16 l48 15 0 -96 c0 -99 -18 -234 -45 -332 -8 -30
-15 -60 -15 -66 0 -5 42 -43 93 -84 146 -118 451 -429 549 -560 160 -214 267
-400 348 -604 28 -71 80 -261 80 -293 0 -10 -29 -13 -112 -13 -107 0 -116 -2
-165 -30 -121 -69 -167 -212 -109 -335 44 -94 121 -141 250 -152 86 -7 82 -1
65 -102 -22 -138 -104 -258 -307 -449 -186 -173 -264 -305 -265 -447 -1 -109
47 -191 137 -235 l43 -21 1587 -1 c872 -1 1580 -5 1573 -9 -26 -15 -251 -59
-417 -83 -720 -104 -1671 -178 -2473 -192 -268 -5 -381 -11 -403 -20 -36 -15
-91 -74 -99 -107 -3 -12 -4 -131 -3 -264 l3 -243 2105 -1 c1158 0 2225 0 2373
0 l267 1 0 251 c0 278 -4 299 -64 342 -25 18 -49 23 -121 27 l-90 5 -11 68
c-6 38 -14 101 -18 142 l-7 73 61 11 c87 15 127 43 159 110 22 48 26 69 26
152 0 94 -1 97 -48 192 -50 102 -66 120 -270 316 -172 166 -241 280 -248 411
l-4 65 70 6 c116 10 191 55 238 144 30 57 29 154 -2 215 -47 90 -122 138 -227
144 -36 3 -68 6 -70 9 -2 2 5 42 15 88 54 227 87 565 77 785 -18 384 -109 720
-298 1098 -166 332 -398 634 -812 1061 -293 303 -338 352 -468 506 -233 276
-380 554 -424 798 -20 111 -20 321 0 431 42 233 127 438 277 663 35 53 65 94
67 92 2 -2 -10 -61 -27 -132 -63 -263 -91 -548 -71 -733 31 -303 109 -493 276
-670 180 -191 441 -292 758 -294 l140 -1 125 -120 c69 -66 191 -183 271 -260
80 -77 184 -177 232 -223 l87 -84 -9 -151 c-9 -162 0 -395 18 -438 10 -25 15
-27 104 -33 51 -3 177 -8 281 -12 l188 -6 -39 108 c-21 60 -49 148 -62 197
-22 82 -22 94 -11 185 6 53 15 100 20 105 4 4 36 -22 69 -58 71 -78 147 -218
190 -352 36 -109 76 -176 100 -169 9 3 148 50 307 104 l290 99 -1 49 c-13 461
-9 489 76 604 27 36 54 79 60 94 14 38 13 90 -4 130 -8 19 -96 132 -196 251
l-183 217 -97 202 c-54 110 -141 291 -193 401 -52 110 -131 274 -175 365 -139
288 -213 442 -268 559 l-54 114 6 156 c9 209 13 200 -194 422 l-33 36 68 17
c181 46 351 194 453 395 20 40 20 43 3 36 -72 -30 -150 -32 -225 -6 -103 35
-162 86 -257 219 -61 87 -113 123 -256 180 -44 17 -123 43 -175 56 -103 27
-349 66 -417 66 -24 0 -43 3 -43 8 0 4 12 43 25 87 54 172 75 382 56 560 -16
140 -30 205 -44 204 -7 0 -41 -10 -77 -23z m438 -2501 c112 -8 220 -17 240
-21 60 -10 171 -44 177 -54 3 -5 -12 -35 -33 -67 -22 -32 -47 -72 -55 -88 -25
-51 -48 -153 -50 -226 -1 -38 -3 -69 -5 -69 -11 0 -121 62 -188 106 -147 97
-299 282 -339 412 -8 27 -20 27 253 7z m1401 -1924 c44 -44 87 -164 77 -215
-4 -17 -20 -51 -36 -75 -17 -25 -33 -56 -37 -70 -5 -21 4 -99 18 -161 3 -10
-5 -16 -25 -18 -72 -9 -139 27 -173 92 -22 41 -20 256 3 336 30 103 122 162
173 111z m-3264 -461 c462 -546 604 -719 680 -830 308 -444 446 -701 568
-1055 42 -123 101 -364 122 -505 18 -116 32 -547 21 -651 l-7 -64 -129 3 -128
3 -6 47 c-3 26 -11 97 -16 157 -31 317 -76 535 -176 850 -134 423 -242 648
-629 1325 -106 184 -232 409 -280 500 -92 172 -215 425 -215 441 0 6 22 -16
49 -48 26 -32 92 -110 146 -173z"/>
<path d="M5784 10221 c-113 -32 -229 -98 -312 -176 -42 -40 -74 -76 -71 -79 3
-3 64 -17 136 -31 71 -14 180 -41 242 -61 62 -19 114 -34 116 -32 4 5 24 184
30 273 4 44 8 90 11 103 4 20 1 22 -43 21 -27 0 -75 -8 -109 -18z"/>
</g>
</svg>
